<?xml version="1.0" encoding="UTF-8"?>
<svg id="_Слой_1" data-name="Слой 1" xmlns="http://www.w3.org/2000/svg" viewBox="0 0 66 66">
  <defs>
    <style>
      .cls-1 {
        fill: #34b9d9;
      }
    </style>
  </defs>
  <path class="cls-1" d="m34.9,5.91c-.45.49-.92.99-1.39,1.5-3.37,3.66-4.39,7.97-3.39,12.76.2.95-.01,1.2-.87,1.43-4.9,1.26-9.51,6-9.13,12.94.29,5.26,4.41,10,9.98,11.22,6.8,1.48,13.87-3.47,14.69-10.34.14-1.15.05-2.33.03-3.5,0-.56-.12-1.02.73-1.15,5.55-.88,9.35-3.95,11.33-9.23.07-.18.14-.36.22-.54.01-.03.05-.05.08-.07,4.82,8.21,4.73,21.5-3.71,30.96-9.14,10.25-23.69,12.49-35.29,5.54C6.86,50.63,1.83,36.61,6.27,24.27,10.84,11.58,23.26,4.65,34.9,5.91Z"/>
  <path class="cls-1" d="m36.02,16.94c0-4.27,3.33-7.63,7.57-7.64,4.34,0,7.89,3.47,7.83,7.69-.06,4.23-3.59,7.73-7.76,7.72-4.22-.02-7.64-3.5-7.64-7.77Z"/>
</svg>